<?xml version="1.0" encoding="iso-8859-1"?>
<!-- Generator: Adobe Illustrator 21.0.0, SVG Export Plug-In . SVG Version: 6.00 Build 0)  -->
<svg version="1.1" id="Layer_1" xmlns="http://www.w3.org/2000/svg" xmlns:xlink="http://www.w3.org/1999/xlink" x="0px" y="0px"
	 viewBox="0 0 100 100" style="enable-background:new 0 0 100 100;" xml:space="preserve">
<g>
	<path style="fill:#231F20;" d="M52.761,71.163H37.482c-0.828,0-1.5,0.672-1.5,1.5v16.875h-5.345V72.663c0-0.828-0.672-1.5-1.5-1.5
		H10.123l14.814-14.816c0.429-0.429,0.558-1.074,0.325-1.634c-0.232-0.561-0.779-0.926-1.386-0.926h-9.055l15.162-15.161l0,0
		c0.139-0.139,0.25-0.306,0.326-0.49c0.003-0.008,0.004-0.016,0.007-0.023c0.067-0.17,0.106-0.354,0.106-0.547l0,0l0,0
		c0-0.193-0.04-0.377-0.107-0.547c-0.003-0.008-0.004-0.016-0.007-0.023c-0.152-0.37-0.447-0.665-0.816-0.816
		c-0.007-0.003-0.015-0.004-0.023-0.007c-0.17-0.066-0.354-0.106-0.547-0.106h-8.71l13.213-13.212l7.803,7.878
		c0.582,0.589,1.531,0.593,2.121,0.01c0.589-0.583,0.593-1.533,0.01-2.121l-8.863-8.95c-0.28-0.284-0.663-0.443-1.062-0.444
		c-0.002,0-0.003,0-0.004,0c-0.397,0-0.779,0.158-1.061,0.439L15.53,36.506c-0.429,0.429-0.558,1.074-0.325,1.635
		s0.779,0.926,1.386,0.926h8.71L10.139,54.228c-0.429,0.429-0.558,1.074-0.325,1.635s0.779,0.926,1.386,0.926h9.055L5.441,71.604
		c-0.429,0.429-0.558,1.074-0.325,1.635s0.779,0.926,1.386,0.926h21.135V91.04c0,0.828,0.672,1.5,1.5,1.5h8.345
		c0.828,0,1.5-0.672,1.5-1.5V74.165h13.779c0.828,0,1.5-0.671,1.5-1.5C54.261,71.834,53.589,71.163,52.761,71.163z"/>
	<path style="fill:#231F20;" d="M94.563,60.783L79.578,45.648h9.137c0.605,0,1.151-0.364,1.385-0.922
		c0.232-0.559,0.107-1.203-0.319-1.633L74.445,27.608h8.78c0.605,0,1.151-0.364,1.385-0.923c0.232-0.559,0.107-1.203-0.319-1.633
		L67.314,7.909c-0.28-0.284-0.663-0.444-1.062-0.445c-0.002,0-0.003,0-0.004,0c-0.397,0-0.779,0.158-1.061,0.439L48.045,25.047
		c-0.429,0.429-0.558,1.074-0.325,1.635s0.779,0.926,1.386,0.926h8.931L42.554,43.089c-0.429,0.429-0.558,1.074-0.325,1.635
		s0.779,0.926,1.386,0.926h9.283L37.772,60.778c-0.429,0.429-0.558,1.074-0.325,1.635s0.779,0.926,1.386,0.926h21.545v17.205
		c0,0.829,0.672,1.5,1.5,1.5h8.491c0.828,0,1.5-0.671,1.5-1.5V63.339h21.629c0.605,0,1.151-0.364,1.385-0.922
		C95.115,61.857,94.99,61.213,94.563,60.783z M70.369,60.338c-0.828,0-1.5,0.672-1.5,1.5v17.205h-5.491V61.838
		c0-0.828-0.672-1.5-1.5-1.5H42.454L57.58,45.209c0.429-0.429,0.558-1.074,0.325-1.634c-0.232-0.561-0.779-0.926-1.386-0.926h-9.282
		l15.482-15.481l0,0c0.139-0.139,0.25-0.306,0.326-0.49c0.003-0.008,0.004-0.016,0.007-0.023c0.067-0.17,0.106-0.354,0.106-0.547
		l0,0l0,0c0-0.194-0.04-0.377-0.107-0.547c-0.003-0.008-0.004-0.016-0.007-0.023c-0.152-0.369-0.447-0.664-0.816-0.816
		c-0.007-0.003-0.015-0.004-0.023-0.007c-0.17-0.067-0.354-0.106-0.547-0.106h-8.932l13.516-13.517L79.627,24.61h-8.771
		c-0.828,0-1.5,0.671-1.5,1.5c0,0,0,0,0,0.001s0,0.001,0,0.002c0,0.184,0.038,0.357,0.099,0.52c0.007,0.02,0.01,0.039,0.018,0.058
		c0.069,0.163,0.168,0.308,0.286,0.436c0.013,0.014,0.017,0.033,0.031,0.047l15.326,15.477H75.98c-0.605,0-1.151,0.364-1.385,0.923
		c-0.232,0.559-0.107,1.203,0.319,1.633L89.899,60.34h-19.53V60.338z"/>
</g>
</svg>
